<?xml version="1.0" standalone="no"?>
<!DOCTYPE svg PUBLIC "-//W3C//DTD SVG 20010904//EN"
 "http://www.w3.org/TR/2001/REC-SVG-20010904/DTD/svg10.dtd">
<svg version="1.0" xmlns="http://www.w3.org/2000/svg"
 width="192.000000pt" height="192.000000pt" viewBox="0 0 192.000000 192.000000"
 preserveAspectRatio="xMidYMid meet">
<metadata>
Created by potrace 1.10, written by Peter Selinger 2001-2011
</metadata>
<g transform="translate(0.000000,192.000000) scale(0.100000,-0.100000)"
fill="#000000" stroke="none">
<path d="M57 1842 l-37 -38 0 -855 0 -855 38 -37 38 -37 855 0 855 0 37 38 37
38 0 855 0 855 -38 37 -38 37 -855 0 -855 0 -37 -38z m1725 -54 c8 -3 12
-1667 5 -1675 -5 -4 -1669 -4 -1674 0 -8 9 -3 1671 6 1676 9 6 1647 4 1663 -1z"/>
<path d="M200 950 l0 -750 750 0 750 0 0 750 0 750 -750 0 -750 0 0 -750z
m305 701 c9 -28 -228 -265 -256 -256 -12 4 -19 16 -19 33 0 38 204 242 242
242 18 0 29 -7 33 -19z m256 -7 c19 -22 21 -28 9 -32 -19 -7 -475 -463 -482
-482 -4 -12 -10 -10 -32 9 -14 14 -26 29 -26 35 0 14 482 496 496 496 6 0 21
-12 35 -26z m808 -39 c16 -8 33 -27 40 -43 9 -21 11 -184 9 -626 l-3 -598 -33
-29 -33 -30 -605 3 -606 3 -30 34 -30 33 4 342 3 341 48 65 c49 66 137 149
188 175 15 8 30 23 33 33 3 10 21 26 38 36 31 18 119 105 213 211 27 30 48 45
65 45 14 0 32 5 40 10 9 6 141 10 323 10 250 0 313 -3 336 -15z"/>
<path d="M437 1153 c-2 -5 -2 -25 0 -45 l5 -37 90 -3 90 -3 -1 -267 -2 -268
46 0 46 0 -2 268 -1 267 91 3 91 3 0 44 0 45 -224 0 c-124 0 -227 -3 -229 -7z"/>
<path d="M1100 979 l0 -180 130 2 c72 1 133 -1 137 -4 7 -8 8 -165 0 -173 -3
-3 -65 -5 -136 -5 l-131 2 0 -46 0 -45 180 0 180 0 0 180 0 180 -135 0 -135 0
0 90 0 90 135 0 135 0 0 45 0 45 -180 0 -180 0 0 -181z"/>
</g>
</svg>
